<?xml version="1.0" encoding="UTF-8"?>
<svg width="60px" height="60px" viewBox="0 0 60 60" version="1.1" xmlns="http://www.w3.org/2000/svg" xmlns:xlink="http://www.w3.org/1999/xlink">
    <title>Dollars</title>
    <g id="Dollars" stroke="none" stroke-width="1" fill="none" fill-rule="evenodd">
        <g id="Rewards">
            <rect id="Rectangle" fill="#FFFFFF" fill-rule="nonzero" opacity="0.15" transform="translate(30.000000, 30.000000) rotate(90.000000) translate(-30.000000, -30.000000) " x="3.55271368e-15" y="3.55271368e-15" width="60" height="60" rx="3.75"></rect>
            <rect id="Rectangle" fill="#BFC6F9" fill-rule="nonzero" opacity="0.5" transform="translate(30.000000, 30.000000) rotate(90.000000) translate(-30.000000, -30.000000) " x="9" y="9" width="42" height="42" rx="4.18"></rect>
            <rect id="Rectangle" fill="#BFC6F9" fill-rule="nonzero" x="8.74" y="28.98" width="44.27" height="22.14"></rect>
            <path d="M53.05,29 L53.2,51.17 C53.1946764,51.2710097 53.1111497,51.3501402 53.01,51.35 L53.01,51.35 L8.74,51.57 C8.5190861,51.57 8.34,51.3909139 8.34,51.17 L8.34,51.17 L8.24,40.1 L8.21,29 C8.21544999,28.7112017 8.45115027,28.48 8.74,28.48 L8.74,28.48 L19.9,28.48 L31,28.61 L53.05,29 Z M53,29 L30.74,29.34 L19.74,29.46 L8.74,29.46 L9.26,29 L9.26,40.07 L9.16,51.14 L8.76,50.74 L53,50.94 L52.82,51.12 L53,29 Z" id="Shape" fill="#5161CF" fill-rule="nonzero"></path>
            <polygon id="Path" fill="#DFE2FC" fill-rule="nonzero" points="10.43 54.14 6.89 32.27 50.64 25.71 54.17 47.58"></polygon>
            <path d="M10.43,54.14 L8.37,43.39 L7.31,37.91 C6.98,36.06 6.71,34.2 6.4,32.35 C6.35783452,32.0798584 6.54047516,31.8259433 6.81,31.78 L6.81,31.78 L50.55,25.22 C50.8201416,25.1778345 51.0740567,25.3604752 51.12,25.63 L54.67,47.5 C54.7121655,47.7701416 54.5295248,48.0240567 54.26,48.07 L54.26,48.07 L32.18,51.35 L26.66,52.16 L21.22,52.82 L10.43,54.14 Z M10.43,54.14 L21.51,52.14 L27,51.14 L32.42,50.31 L54.1,47.09 L53.68,47.66 L50.14,25.79 L50.71,26.2 L7,32.77 L7.42,32.19 C7.69,33.99 8.01,35.77 8.28,37.57 L9,43 L10.43,54.14 Z" id="Shape" fill="#5161CF" fill-rule="nonzero"></path>
            <polygon id="Path" stroke="#5161CF" stroke-width="0.75" fill="#BFC6F9" fill-rule="nonzero" stroke-linejoin="round" points="14.36 58.21 5.7 37.71 46.71 21.64 55.37 42.15"></polygon>
            <ellipse id="Oval" fill="#DFE2FC" fill-rule="nonzero" transform="translate(30.272988, 39.933959) rotate(-25.930000) translate(-30.272988, -39.933959) " cx="30.2729876" cy="39.9339591" rx="6.2" ry="8.14"></ellipse>
            <path d="M35.9,37.19 C36.7276582,38.9088635 37.073277,40.8201356 36.9,42.72 C36.748838,44.7026149 35.6252876,46.4815697 33.9,47.47 C32.0563744,48.2868664 29.9271965,48.1331757 28.22,47.06 C26.5252401,46.0578945 25.1621556,44.5800605 24.3,42.81 C23.3861092,41.0470083 23.007253,39.0554062 23.21,37.08 C23.3384847,36.0669477 23.6792371,35.0923956 24.21,34.22 C24.7630575,33.3341763 25.5527904,32.6206456 26.49,32.16 C27.4317966,31.7448195 28.4713378,31.6027488 29.49,31.75 C30.4738477,31.9132855 31.411447,32.2849158 32.24,32.84 C33.8272441,33.9363986 35.0911968,35.4386374 35.9,37.19 Z M35.81,37.24 C34.9756178,35.5659521 33.6451218,34.1900586 32,33.3 C30.4493876,32.4132819 28.567578,32.3240261 26.94,33.06 C25.4238511,33.9274367 24.4186887,35.4724085 24.24,37.21 C23.9988648,39.0034942 24.2873671,40.8283586 25.07,42.46 C25.8366387,44.1056319 27.0624719,45.4946781 28.6,46.46 C30.1171672,47.475532 32.0399088,47.6704298 33.73,46.98 C35.3948922,46.133419 36.5223051,44.5061864 36.73,42.65 C36.9808286,40.7950662 36.6598805,38.9077522 35.81,37.24 L35.81,37.24 Z" id="Shape" fill="#5161CF" fill-rule="nonzero"></path>
            <path d="M34.05,41.47 C34.080709,41.2244809 34.0568062,40.9752094 33.98,40.74 C33.9211995,40.516379 33.8338125,40.3012724 33.72,40.1 C33.4675444,39.6440925 33.0422798,39.3089263 32.54,39.17 C32.1171664,39.0681717 31.6847782,39.0111903 31.25,39 C30.8370646,38.9743487 30.4229354,38.9743487 30.01,39 C29.54,38 29.08,37 28.65,36 C29.230234,35.6334416 29.9496733,35.5629811 30.59,35.81 L30.59,35.72 C29.9299116,35.4007329 29.1600884,35.4007329 28.5,35.72 C28.41,35.45 28.39,35.35 28.24,34.98 C28,34.9 27.92,34.98 28.02,35.21 C28.1127051,35.4115213 28.1928581,35.6185833 28.26,35.83 L28.2,35.83 C27.4492106,36.2462515 26.988125,37.0416242 27,37.9 C27.0571122,38.3439314 27.2372278,38.7630465 27.52,39.11 C27.8433611,39.4899303 28.321265,39.7031489 28.82,39.69 L29.57,39.69 C29.64,39.87 29.7,40.06 29.77,40.25 C30.0811032,41.1967376 30.4690612,42.1164657 30.93,43 C31.06,43.21 31.18,43.42 31.32,43.63 L31.32,43.63 C30.5516134,43.7979734 29.7530645,43.7669952 29,43.54 L29,43.63 C29.7331011,44.0603977 30.5842599,44.2460414 31.43,44.16 L31.67,44.1 C31.99,44.55 31.94,44.81 32.34,45.21 L32.82,45 C32.6925447,44.6147416 32.5422791,44.2374082 32.37,43.87 C32.4794066,43.8260666 32.5862435,43.7759868 32.69,43.72 C33.0715554,43.458091 33.3921703,43.1170112 33.63,42.72 C33.8664766,42.3422188 34.010383,41.913926 34.05,41.47 L34.05,41.47 Z M28,38.72 C27.6245588,38.3495502 27.4501987,37.8211384 27.5314413,37.2999966 C27.612684,36.7788548 27.9396133,36.3285907 28.41,36.09 C28.68,37.09 28.99,38.03 29.33,38.99 C29.1634582,38.9991243 28.9965418,38.9991243 28.83,38.99 C28.5257873,39.0416868 28.2155802,38.9407761 28,38.72 L28,38.72 Z M30.5,39.94 C30.5,39.86 30.43,39.77 30.38,39.69 C30.6457753,39.6998703 30.9101481,39.7333352 31.17,39.79 C31.5341166,39.8424776 31.892403,39.9295379 32.24,40.05 C32.4989636,40.1458827 32.712889,40.3348502 32.84,40.58 C32.909508,40.7132911 32.9632054,40.8542466 33,41 C33.0283174,41.1351998 33.0283174,41.2748002 33,41.41 C32.9966049,41.7272835 32.9177673,42.0392062 32.77,42.32 C32.59652,42.6680444 32.3386854,42.9671326 32.02,43.19 L31.76,42.53 C31.45,41.65 30.92,40.82 30.48,39.94 L30.5,39.94 Z" id="Shape" fill="#5161CF"></path>
        </g>
    </g>
</svg>