<?xml version="1.0" encoding="utf-8"?>
<!-- Generator: Adobe Illustrator 24.2.3, SVG Export Plug-In . SVG Version: 6.00 Build 0)  -->
<svg version="1.1" id="Layer_1" xmlns="http://www.w3.org/2000/svg" xmlns:xlink="http://www.w3.org/1999/xlink" x="0px" y="0px"
	 viewBox="0 0 60 61" style="enable-background:new 0 0 60 61;" xml:space="preserve">
<style type="text/css">
	.st0{opacity:0.15;fill:#FFFFFF;enable-background:new    ;}
	.st1{opacity:0.5;fill:#BFC6FE;enable-background:new    ;}
	.st2{fill:#7386E5;}
	.st3{fill:#2D2FA7;}
</style>
<g>
	<path id="Rectangle" class="st0" d="M60,3.8v52.5c0,2.1-1.7,3.8-3.8,3.8H3.8C1.7,60,0,58.3,0,56.2V3.8C0,1.7,1.7,0,3.8,0h52.5
		C58.3,0,60,1.7,60,3.8z"/>
	<g id="Group-2" transform="translate(8.000000, 0.000000)">
		<path id="Rectangle_2_" class="st1" d="M43,4.2v33.6c0,2.3-1.9,4.2-4.2,4.2H5.2C2.9,42,1,40.1,1,37.8V4.2C1,1.9,2.9,0,5.2,0h33.6
			C41.1,0,43,1.9,43,4.2z"/>
	</g>
</g>
<g>
	<path class="st2" d="M24.6,24.3l6.2-3.2c0.2-0.1,0.5-0.1,0.7,0l6.2,3.2l-1-7c0-0.3,0-0.5,0.2-0.7l4.9-5l-6.8-1.1
		c-0.3,0-0.5-0.2-0.6-0.4l-3.2-6.3L28,10.1c-0.1,0.2-0.3,0.4-0.6,0.4l-6.8,1.1l4.9,5c0.2,0.2,0.3,0.4,0.2,0.7L24.6,24.3L24.6,24.3z"
		/>
	<path class="st3" d="M24.3,23.8c1.1-0.4,2.3-0.9,3.4-1.5c0.6-0.2,1.1-0.5,1.7-0.8l0.8-0.4l0.4-0.2c0.1-0.1,0.4-0.1,0.5-0.1
		c0.2,0,0.4,0.1,0.5,0.2l0.4,0.2l0.8,0.4l1.7,0.8c1.1,0.5,2.2,1,3.4,1.4l0,0l-0.8,0.6l-0.5-3.7l-0.3-1.8L36.2,18l-0.1-0.5l0-0.1
		c0-0.1,0-0.1,0-0.2c0-0.1,0-0.3,0.1-0.4c0.1-0.2,0.2-0.5,0.4-0.6l0.3-0.3l0.6-0.7l1.3-1.3l2.6-2.6l0,0l0.3,0.9
		c-1.2-0.4-2.4-0.6-3.6-0.9c-0.6-0.1-1.2-0.2-1.8-0.4l-0.9-0.2l-0.5-0.1c-0.2,0-0.4-0.1-0.5-0.2c-0.3-0.3-0.4-0.6-0.5-0.8l-0.4-0.8
		c-0.3-0.5-0.6-1.1-0.9-1.6c-0.6-1.1-1.2-2.1-1.9-3.2l0,0l1,0L30,7.3L29.2,9l-0.4,0.8l-0.2,0.4c0,0.1-0.2,0.4-0.4,0.6
		c-0.2,0.2-0.5,0.3-0.7,0.3L27,11.2l-0.9,0.1l-1.8,0.3l-3.6,0.6l0,0l0.3-0.9l2.6,2.6l1.3,1.3l0.6,0.7l0.3,0.3
		c0.1,0.1,0.3,0.4,0.4,0.6c0,0.1,0.1,0.3,0.1,0.4c0,0.1,0,0.3,0,0.3L26.1,18L26,18.9l-0.3,1.8l-0.3,1.8l-0.1,0.9l-0.1,0.5l0,0.2
		l0,0.1l0,0.1l0,0l0,0l0,0l0,0C24.8,24.1,25.9,25,24.3,23.8z M24.8,24.8c-1.6-1.1-0.4-0.3-0.8-0.6l0,0l0,0l0,0l0,0l0-0.1l0-0.1
		l0-0.2l0.1-0.5l0.1-0.9l0.3-1.8l0.3-1.8l0.1-0.9l0.1-0.5c0-0.1,0-0.1,0-0.1c0,0,0,0,0-0.1c0-0.1,0,0-0.1-0.1l-0.3-0.3L24,16
		l-1.3-1.3L20.1,12l-0.7-0.8l1-0.2l0,0l3.6-0.6l1.8-0.3l0.9-0.2l0.5-0.1c0.1,0,0.1,0,0.1-0.1c0,0,0.2-0.3,0.3-0.6l0.4-0.8L29,6.8
		l1.7-3.3l0.6-1.1l0.4,1.1l0,0C32,4.7,32.5,5.8,33,7c0.2,0.6,0.5,1.1,0.8,1.7l0.4,0.8c0.1,0.3,0.2,0.6,0.4,0.7
		c0.1,0.1,0.2,0.1,0.3,0.1l0.5,0.1l0.9,0.1c0.6,0.1,1.2,0.2,1.8,0.2c1.2,0.1,2.4,0.3,3.7,0.3l1.2,0L42.2,12l0,0l-2.6,2.6L38.3,16
		l-0.6,0.7L37.3,17c-0.1,0.1-0.1,0.1-0.1,0.2c0,0,0,0.1,0,0.1l0,0l0,0.1l0.1,0.5l0.1,0.9l0.3,1.8l0.5,3.7l0.2,1.2l-1-0.6l0,0
		c-1-0.7-2.1-1.3-3.1-1.9L32.7,22l-0.8-0.4c-0.3-0.1-0.5-0.3-0.7-0.3c-0.1,0-0.2,0-0.3,0.1l-0.4,0.2L29.6,22
		c-0.5,0.3-1.1,0.6-1.6,0.9C26.9,23.5,25.9,24.1,24.8,24.8z"/>
</g>
<g>
	<path class="st2" d="M8.9,35.3l4.8-3.8c0.2-0.1,0.4-0.2,0.6-0.1l5.9,1.7l-2.1-5.8c-0.1-0.2,0-0.5,0.1-0.6l3.4-5.1l-6.1,0.2
		c-0.2,0-0.5-0.1-0.6-0.3l-3.8-4.9l-1.7,5.9c-0.1,0.2-0.2,0.4-0.4,0.5L3.2,25l5.1,3.5c0.2,0.1,0.3,0.3,0.3,0.6L8.9,35.3L8.9,35.3z"
		/>
	<path class="st3" d="M8.8,35.2c0.8-0.8,1.6-1.5,2.4-2.2l1.2-1l0.6-0.5l0.3-0.3c0.1-0.1,0.4-0.2,0.6-0.3c0.2,0,0.5,0,0.6,0.1
		l0.4,0.1l0.8,0.2l1.5,0.5c1,0.3,2,0.7,3,1.1l0,0l-0.2,0.2c-0.4-1-0.8-2-1.2-3l-0.5-1.5L18,27.8l-0.1-0.4c0-0.1-0.1-0.3-0.1-0.5
		c0-0.2,0.1-0.4,0.2-0.5l0.2-0.3l0.5-0.7l1-1.3c0.7-0.9,1.3-1.8,1.9-2.7l0,0l0,0l-3.2,0.1l-1.6,0.1l-0.8,0c-0.3,0-0.6,0.1-0.8-0.1
		c-0.3-0.2-0.4-0.4-0.6-0.6L14,20.4l-1-1.3l-2-2.5l0,0l0.3-0.1l-0.9,3.1l-0.4,1.6L9.7,22c-0.1,0.3-0.1,0.5-0.3,0.8
		C9.3,22.9,9.1,23,9,23.1l-0.4,0.1l-0.8,0.3l-1.5,0.6l-3,1.1l0,0l0-0.3c1,0.4,2,1,2.9,1.5c0.5,0.3,0.9,0.6,1.4,0.9l0.7,0.5L8.6,28
		c0.1,0.1,0.4,0.3,0.5,0.5c0.1,0.1,0.1,0.2,0.1,0.4c0,0.1,0,0.3,0,0.3l0,0.4c0,0.3,0,0.5,0,0.8c0,0.5,0,1.1,0,1.6
		c0,0.5,0,1.1-0.1,1.6l-0.1,0.8l0,0.4l0,0.2l0,0.1l0,0.1l0,0l0,0l0,0l0,0C8.9,35.3,9.2,35.4,8.8,35.2z M8.9,35.4
		c-0.5-0.2-0.1-0.1-0.2-0.1l0,0l0,0l0,0l0,0l0-0.1l0-0.1l0-0.2l-0.1-0.4l-0.1-0.8c-0.1-0.5-0.2-1.1-0.2-1.6C8.1,31.5,8.1,31,8,30.5
		c0-0.3,0-0.5-0.1-0.8l0-0.4c0-0.1,0-0.1,0-0.1l0,0c0,0,0,0-0.1-0.1l-0.3-0.2l-0.7-0.5c-0.4-0.3-0.9-0.7-1.3-1
		c-0.8-0.7-1.7-1.4-2.4-2.2L3,25l0.2-0.1l0,0l3-1.1l1.5-0.6l0.8-0.3l0.4-0.1c0.1,0,0.2-0.1,0.3-0.2c0.1-0.1,0.2-0.5,0.2-0.7l0.2-0.8
		l0.4-1.6l0.9-3.1l0.1-0.3l0.2,0.3l0,0l2,2.6l1,1.3l0.5,0.6c0.2,0.2,0.3,0.5,0.5,0.6c0.2,0.1,0.5,0.1,0.8,0.1l0.8,0l1.6,0l3.2,0l0,0
		l0,0c-0.6,0.9-1.2,1.8-1.7,2.8l-0.8,1.4l-0.4,0.7l-0.2,0.3c-0.1,0.1-0.1,0.2-0.1,0.3c0,0.1,0.1,0.4,0.2,0.7l0.3,0.8l0.5,1.5
		c0.3,1,0.7,2.1,1,3.1l0.1,0.2l-0.2,0l0,0c-1.1-0.2-2.1-0.4-3.2-0.6l-1.6-0.4L14.6,32l-0.4-0.1c-0.1,0-0.1,0-0.2,0
		c-0.1,0,0,0-0.1,0.1l-0.3,0.2L13,32.7l-1.3,1C10.8,34.3,9.9,34.9,8.9,35.4z"/>
</g>
<g>
	<path class="st2" d="M42.7,32.8l5.6-2.1c0.2-0.1,0.4-0.1,0.6,0.1l5,3.3L53.7,28c0-0.2,0.1-0.4,0.3-0.6l4.6-3.9l-5.8-1.6
		c-0.2-0.1-0.4-0.2-0.5-0.4l-2.2-5.7l-3.3,5.1c-0.1,0.2-0.3,0.3-0.5,0.3l-6,0.3l3.7,4.8c0.1,0.2,0.2,0.4,0.1,0.6L42.7,32.8
		L42.7,32.8z"/>
	<path class="st3" d="M42.6,32.7c0.9-0.5,1.9-0.9,2.9-1.3c0.5-0.2,1-0.4,1.5-0.6l0.7-0.3l0.4-0.1c0.1-0.1,0.4-0.1,0.6-0.1
		c0.2,0,0.4,0.1,0.5,0.2l0.3,0.2l0.7,0.4l1.3,0.9c0.9,0.6,1.7,1.2,2.5,1.9l0,0L53.8,34c-0.1-1.1-0.2-2.1-0.3-3.2l-0.1-1.6l0-0.8
		l0-0.4c0-0.1,0-0.4,0.1-0.5c0.1-0.2,0.2-0.3,0.3-0.4l0.3-0.3l0.6-0.5l1.2-1c0.8-0.7,1.7-1.3,2.5-1.9l0,0l0.1,0.3l-3.1-0.9L54,22.4
		l-0.8-0.2C53,22,52.7,22,52.4,21.8c-0.2-0.2-0.2-0.5-0.4-0.7l-0.3-0.7l-0.6-1.5l-1.2-3l0,0l0.3,0c-0.5,0.9-1,1.9-1.6,2.8
		c-0.3,0.5-0.5,0.9-0.8,1.4l-0.4,0.7l-0.2,0.3c0,0.1-0.2,0.3-0.4,0.4c-0.2,0.1-0.4,0.2-0.6,0.2l-0.4,0l-0.8,0l-1.6,0
		c-1.1,0-2.1,0-3.2-0.1l0,0l0.1-0.2c0.8,0.7,1.5,1.5,2.2,2.3l1,1.2l0.5,0.6l0.2,0.3c0.1,0.1,0.2,0.4,0.3,0.6c0,0.1,0,0.2,0,0.3
		c0,0.1,0,0.2-0.1,0.3l-0.1,0.4l-0.2,0.8c-0.1,0.5-0.3,1-0.5,1.5c-0.2,0.5-0.3,1-0.5,1.5l-0.3,0.8L43,32.5l-0.1,0.2l0,0.1l0,0l0,0
		l0,0l0,0l0,0C42.7,32.8,43,33.1,42.6,32.7z M42.7,33c-0.4-0.4-0.1-0.1-0.2-0.2l0,0l0,0l0,0l0,0l0,0l0-0.1l0-0.2l0.1-0.4l0.1-0.8
		c0.1-0.5,0.2-1.1,0.3-1.6c0.1-0.5,0.2-1,0.3-1.6l0.2-0.8l0.1-0.4c0-0.1,0-0.1,0-0.1c0,0,0,0,0-0.1c0-0.1,0,0-0.1-0.1l-0.2-0.3
		l-0.5-0.6L42,24.4c-0.6-0.9-1.2-1.8-1.7-2.7l-0.1-0.2l0.2,0l0,0c1-0.2,2.1-0.3,3.2-0.4l1.6-0.1l0.8-0.1l0.4,0c0.1,0,0.1,0,0.2,0
		c0.1,0,0.2-0.3,0.4-0.5l0.4-0.7c0.3-0.4,0.6-0.9,0.9-1.3c0.6-0.9,1.2-1.7,1.9-2.6l0.2-0.2l0.1,0.3l0,0l1.1,3l0.6,1.5l0.3,0.7
		c0.1,0.2,0.2,0.5,0.3,0.7c0.1,0.2,0.4,0.2,0.7,0.3l0.8,0.2l1.5,0.4l3.1,0.8l0.3,0.1l-0.2,0.2l0,0c-0.8,0.7-1.6,1.4-2.4,2.1l-1.2,1
		l-0.6,0.5l-0.3,0.3c-0.1,0.1-0.1,0.1-0.2,0.2c-0.1,0.1,0,0.4,0,0.7l0,0.8l0,1.6c0,1.1,0,2.1,0,3.2l0,0.3l-0.2-0.1l0,0
		c-0.9-0.5-1.9-1-2.8-1.5l-1.3-0.8l-0.7-0.4l-0.3-0.2c-0.1-0.1-0.1-0.1-0.2-0.1c-0.1,0-0.1,0-0.2,0L48,31.2l-0.7,0.3
		c-0.5,0.2-1,0.4-1.5,0.5C44.8,32.4,43.8,32.7,42.7,33z"/>
</g>
<g>
	<path class="st2" d="M6.8,53.1l4-3.8c0.1-0.1,0.4-0.2,0.6-0.2l5.4,1l-2.3-5.1c-0.1-0.2-0.1-0.4,0-0.6l2.6-4.9l-5.5,0.6
		c-0.2,0-0.4-0.1-0.6-0.2L7.3,36l-1,5.5c0,0.2-0.2,0.4-0.3,0.5l-5,2.4l4.8,2.8c0.2,0.1,0.3,0.3,0.3,0.5L6.8,53.1L6.8,53.1z"/>
	<path class="st3" d="M6.7,53c0.6-0.8,1.3-1.5,2-2.2c0.3-0.4,0.7-0.7,1-1l0.5-0.5l0.3-0.3c0.1-0.1,0.3-0.2,0.5-0.3
		c0.2-0.1,0.4,0,0.6,0l0.4,0.1l0.7,0.1c0.5,0.1,1,0.2,1.4,0.3c0.9,0.2,1.9,0.5,2.8,0.8l0,0l-0.2,0.2c-0.4-0.9-0.8-1.8-1.2-2.7
		c-0.4-0.9-0.7-1.8-1.1-2.7c0-0.1,0-0.3,0-0.4l0.2-0.3l0.3-0.7l0.7-1.3c0.5-0.9,0.9-1.7,1.4-2.6l0,0l0.1,0.2c-1,0.2-1.9,0.3-2.9,0.5
		l-1.5,0.2l-0.7,0.1l-0.4,0c-0.2,0-0.4,0-0.5-0.1c-0.2-0.1-0.3-0.2-0.4-0.3l-0.2-0.3L10,39.4c-0.3-0.4-0.7-0.7-1-1.1
		c-0.6-0.7-1.3-1.5-1.9-2.2l0,0L7.4,36c0,1-0.1,2-0.2,2.9c-0.1,0.5-0.1,1-0.2,1.4l-0.1,0.7l-0.1,0.4c0,0.1-0.1,0.4-0.2,0.5
		c-0.1,0.2-0.3,0.3-0.5,0.4l-0.3,0.2l-0.7,0.3c-0.4,0.2-0.9,0.4-1.4,0.6c-0.9,0.4-1.8,0.7-2.8,1l0,0l0-0.3l2.6,1.5l1.3,0.7l0.6,0.4
		c0.2,0.1,0.5,0.2,0.6,0.5c0.2,0.3,0.1,0.5,0.2,0.8l0.1,0.7l0.2,1.5l0.2,1.5l0.1,0.7l0,0.4l0,0.2l0,0.1l0,0l0,0l0,0l0,0l0,0
		C6.8,53,7.2,53.2,6.7,53z M6.9,53.2c-0.5-0.2-0.1-0.1-0.2-0.1l0,0l0,0l0,0l0,0l0,0l0-0.1l0-0.2l0-0.4l-0.1-0.7l-0.2-1.5l-0.2-1.5
		L6,48c0-0.2,0-0.5-0.1-0.7c-0.1-0.2-0.3-0.2-0.5-0.4l-0.6-0.4l-1.3-0.7l-2.6-1.5l-0.2-0.1l0.2-0.1l0,0c0.8-0.6,1.7-1.1,2.5-1.5
		c0.4-0.2,0.9-0.5,1.3-0.7l0.7-0.3l0.3-0.2c0.1,0,0,0,0.1-0.1c0,0,0.1-0.3,0.1-0.5l0.1-0.7c0.1-0.5,0.2-1,0.3-1.4
		c0.2-0.9,0.5-1.9,0.9-2.8l0.1-0.2l0.2,0.2l0,0c0.7,0.7,1.4,1.3,2.1,2c0.3,0.3,0.7,0.7,1,1l0.5,0.5c0.2,0.2,0.4,0.4,0.4,0.4
		c0.1,0,0.1,0,0.2,0l0.4,0l0.7-0.1l1.5-0.1c1-0.1,1.9-0.2,2.9-0.2l0.3,0l-0.1,0.2l0,0c-0.4,0.9-0.9,1.7-1.4,2.6l-1.4,2.5
		c-0.1,0.1,0,0.2,0.1,0.3l0.2,0.3c0.1,0.2,0.2,0.4,0.3,0.6c0.2,0.4,0.5,0.9,0.7,1.3c0.4,0.9,0.9,1.8,1.2,2.7l0.1,0.2l-0.3,0l0,0
		c-1-0.1-1.9-0.2-2.9-0.3c-0.5-0.1-1-0.2-1.4-0.2l-0.7-0.1l-0.4-0.1c-0.1,0-0.1,0-0.2,0c-0.1,0,0,0-0.1,0.1l-0.3,0.2l-0.5,0.5
		c-0.4,0.3-0.7,0.7-1.1,1C8.4,52,7.7,52.6,6.9,53.2z"/>
</g>
<g>
	<path class="st2" d="M44,49.9l5.2-1.2c0.2,0,0.4,0,0.5,0.1l4.1,3.5l0.5-5.4c0-0.2,0.1-0.4,0.3-0.5l4.6-2.9l-4.9-2.1
		c-0.2-0.1-0.3-0.2-0.4-0.4l-1.2-5.3l-3.5,4.1C49,40,48.8,40,48.6,40l-5.3-0.4l2.7,4.7c0.1,0.2,0.1,0.4,0,0.6L44,49.9L44,49.9z"/>
	<path class="st3" d="M44,49.7c0.9-0.3,1.8-0.6,2.7-0.9c0.4-0.1,0.9-0.3,1.4-0.4l0.7-0.2l0.3-0.1c0.1,0,0.4-0.1,0.6,0
		c0.2,0,0.4,0.2,0.5,0.3l0.3,0.2l0.5,0.5c0.3,0.3,0.7,0.6,1,1c0.7,0.7,1.4,1.3,2,2l0,0l-0.3,0.1l0.3-2.8l0.1-1.4l0.1-0.7
		c0-0.2,0-0.5,0.1-0.8c0.1-0.1,0.2-0.2,0.3-0.3l0.3-0.2l0.6-0.4l1.2-0.8l2.4-1.5l0,0l0,0.3c-0.9-0.2-1.8-0.6-2.7-0.9
		c-0.4-0.2-0.9-0.3-1.3-0.5L54.4,42l-0.3-0.1c-0.2-0.1-0.4-0.2-0.5-0.4c-0.1-0.1-0.2-0.4-0.2-0.5l-0.1-0.3l-0.1-0.7
		C53.1,39.5,53,39,53,38.5c-0.2-0.9-0.3-1.9-0.4-2.8l0,0l0.3,0.1c-0.5,0.8-1,1.6-1.6,2.4c-0.3,0.4-0.6,0.7-0.9,1.1l-0.5,0.5
		l-0.2,0.3c0,0.1-0.2,0.3-0.4,0.4c-0.2,0.1-0.4,0.1-0.6,0.1l-0.4,0l-0.7-0.1c-0.5-0.1-0.9-0.1-1.4-0.2c-0.9-0.1-1.9-0.3-2.8-0.5l0,0
		l0.2-0.2l1.4,2.5l0.7,1.2l0.4,0.6c0.1,0.2,0.3,0.4,0.3,0.7c0,0.3-0.1,0.5-0.2,0.7l-0.3,0.7l-0.5,1.3l-0.5,1.3l-0.3,0.7l-0.1,0.3
		l-0.1,0.2l0,0.1l0,0l0,0l0,0l0,0l0,0C44.1,49.8,44.4,50.1,44,49.7z M44.1,50c-0.4-0.4-0.1-0.1-0.2-0.2l0,0l0,0l0,0l0,0l0,0l0-0.1
		l0.1-0.2l0.1-0.3l0.3-0.7l0.5-1.3l0.5-1.3l0.3-0.7c0.1-0.2,0.2-0.4,0.2-0.6c0-0.2-0.2-0.4-0.3-0.6l-0.4-0.6l-0.7-1.2l-1.5-2.4
		L43,39.5l0.3,0l0,0c1-0.1,1.9-0.1,2.8-0.1c0.5,0,0.9,0,1.4,0l0.7,0l0.4,0c0,0,0,0,0.1,0l0.8-0.9c0.3-0.3,0.6-0.7,1-1
		c0.7-0.7,1.3-1.3,2.1-1.9l0.2-0.2l0.1,0.2l0,0c0.3,0.9,0.6,1.8,0.9,2.7c0.1,0.5,0.3,0.9,0.4,1.4l0.2,0.7c0.1,0.2,0.1,0.5,0.1,0.5
		l2.4,1.1c0.8,0.4,1.7,0.8,2.5,1.3l0.2,0.2l-0.2,0.1l0,0l-2.4,1.5l-1.2,0.8L55,46.3c-0.2,0.1-0.4,0.2-0.5,0.4
		c-0.1,0.1-0.1,0.4-0.1,0.6L54.4,48l-0.1,1.4L54,52.3l0,0.3l-0.2-0.2l0,0c-0.8-0.5-1.6-1.1-2.3-1.6c-0.4-0.3-0.7-0.6-1.1-0.9
		l-0.5-0.5l-0.3-0.2c-0.1-0.1-0.1-0.1-0.1-0.1c0,0,0,0-0.1,0l-0.3,0.1l-0.7,0.1c-0.5,0.1-0.9,0.2-1.4,0.3C45.9,49.8,45,49.9,44.1,50
		z"/>
</g>
<g id="Rep_1_">
	<g>
		<path id="Rectangle_3_" class="st0" d="M130.9,3.8v52.5c0,2.1-1.7,3.8-3.8,3.8H74.7c-2.1,0-3.8-1.7-3.8-3.8V3.8
			c0-2.1,1.7-3.8,3.8-3.8h52.5C129.2,0,130.9,1.7,130.9,3.8z"/>
		<g id="Group-2_1_" transform="translate(8.000000, 0.000000)">
			<path id="Rectangle_1_" class="st1" d="M113.9,4.2v33.6c0,2.3-1.9,4.2-4.2,4.2H76.1c-2.3,0-4.2-1.9-4.2-4.2V4.2
				c0-2.3,1.9-4.2,4.2-4.2h33.6C112.1,0,113.9,1.9,113.9,4.2z"/>
		</g>
	</g>
</g>
<g>
	<path class="st2" d="M96.1,23.4l5.6-2.9c0.2-0.1,0.5-0.1,0.7,0l5.6,2.9l-0.9-6.3c0-0.2,0-0.5,0.2-0.6l4.4-4.5l-6.2-1
		c-0.2,0-0.4-0.2-0.5-0.4l-2.9-5.7l-2.9,5.7c-0.1,0.2-0.3,0.4-0.5,0.4l-6.2,1l4.4,4.6c0.2,0.2,0.2,0.4,0.2,0.6L96.1,23.4L96.1,23.4z
		"/>
	<path class="st3" d="M95.9,22.9c1-0.4,2.1-0.9,3.1-1.3c0.5-0.2,1-0.5,1.5-0.7l0.7-0.4l0.4-0.2c0.1-0.1,0.3-0.1,0.5-0.1
		c0.2,0,0.4,0.1,0.5,0.1l0.4,0.2l0.7,0.4l1.5,0.7c1,0.5,2,0.9,3.1,1.3l0,0l-0.7,0.5l-0.5-3.3l-0.2-1.7l-0.1-0.8l-0.1-0.4l0-0.1
		c0-0.1,0-0.1,0-0.2c0-0.1,0-0.2,0.1-0.3c0.1-0.2,0.2-0.5,0.3-0.6l0.3-0.3l0.6-0.6l1.2-1.2l2.3-2.4l0,0l0.3,0.8
		c-1.1-0.3-2.2-0.6-3.3-0.8c-0.5-0.1-1.1-0.2-1.6-0.3l-0.8-0.1l-0.4-0.1c-0.2,0-0.3-0.1-0.5-0.2c-0.3-0.2-0.3-0.5-0.5-0.8l-0.4-0.7
		c-0.3-0.5-0.5-1-0.8-1.5c-0.6-1-1.1-1.9-1.7-2.9l0,0l0.9,0l-1.5,3l-0.7,1.5l-0.4,0.7l-0.2,0.4c0,0.1-0.2,0.4-0.4,0.5
		c-0.2,0.2-0.4,0.3-0.6,0.3l-0.4,0.1l-0.8,0.1l-1.7,0.3l-3.3,0.5l0,0l0.3-0.8l2.4,2.4l1.2,1.2l0.6,0.6l0.3,0.3
		c0.1,0.1,0.3,0.4,0.3,0.6c0,0.1,0.1,0.2,0.1,0.4c0,0.1,0,0.2,0,0.3l-0.1,0.4l-0.1,0.8l-0.3,1.7l-0.3,1.7l-0.1,0.8L96.7,23l0,0.2
		l0,0.1l0,0.1l0,0l0,0l0,0l0,0C96.3,23.2,97.3,23.9,95.9,22.9z M96.4,23.8c-1.4-1-0.4-0.3-0.7-0.5l0,0l0,0l0,0l0,0l0-0.1l0-0.1
		l0-0.2l0.1-0.4l0.1-0.8l0.2-1.7l0.2-1.7l0.1-0.8l0.1-0.4c0-0.1,0-0.1,0-0.1c0,0,0,0,0-0.1c0-0.1,0,0-0.1-0.1l-0.3-0.3l-0.6-0.6
		l-1.2-1.2l-2.3-2.4l-0.7-0.7l0.9-0.2l0,0l3.3-0.6l1.6-0.3l0.8-0.1l0.4-0.1c0.1,0,0.1,0,0.1-0.1c0,0,0.2-0.3,0.3-0.5L99.3,9l0.8-1.5
		l1.5-3l0.5-1l0.4,1l0,0c0.4,1.1,0.8,2.1,1.3,3.1c0.2,0.5,0.5,1,0.7,1.5l0.4,0.8c0.1,0.2,0.2,0.5,0.4,0.7c0.1,0.1,0.2,0.1,0.3,0.1
		l0.4,0.1l0.8,0.1c0.6,0.1,1.1,0.2,1.7,0.2c1.1,0.1,2.2,0.2,3.3,0.3l1.1,0l-0.8,0.8l0,0l-2.3,2.4l-1.2,1.2l-0.6,0.6l-0.3,0.3
		c-0.1,0.1-0.1,0.1-0.1,0.1c0,0,0,0,0,0.1l0,0l0,0.1l0.1,0.4l0.1,0.8L108,20l0.5,3.3l0.2,1.1l-0.9-0.6l0,0c-0.9-0.6-1.9-1.2-2.9-1.7
		l-1.5-0.8l-0.7-0.4c-0.3-0.1-0.5-0.3-0.7-0.3c-0.1,0-0.2,0-0.3,0.1l-0.4,0.2l-0.7,0.4c-0.5,0.3-1,0.5-1.5,0.8
		C98.2,22.6,97.3,23.2,96.4,23.8z"/>
</g>
<g>
	<path class="st2" d="M80.2,35.2l4.8-3.8c0.2-0.1,0.4-0.2,0.6-0.1l5.9,1.7l-2.1-5.8c-0.1-0.2,0-0.5,0.1-0.6l3.4-5.1l-6.1,0.2
		c-0.2,0-0.5-0.1-0.6-0.3l-3.8-4.9l-1.7,5.9c-0.1,0.2-0.2,0.4-0.4,0.5l-5.7,2.1l5.1,3.5c0.2,0.1,0.3,0.3,0.3,0.6L80.2,35.2
		L80.2,35.2z"/>
	<path class="st3" d="M80.1,35.1c0.8-0.8,1.6-1.5,2.4-2.2l1.2-1l0.6-0.5l0.3-0.3c0.1-0.1,0.4-0.2,0.6-0.3c0.2,0,0.5,0,0.6,0.1
		l0.4,0.1l0.8,0.2l1.5,0.5c1,0.3,2,0.7,3,1.1l0,0L91.4,33c-0.4-1-0.8-2-1.2-3l-0.5-1.5l-0.3-0.8l-0.1-0.4c0-0.1-0.1-0.3-0.1-0.5
		c0-0.2,0.1-0.4,0.2-0.5l0.2-0.3l0.5-0.7l1-1.3c0.7-0.9,1.3-1.8,1.9-2.7l0,0l0,0l-3.2,0.1l-1.6,0.1l-0.8,0c-0.3,0-0.6,0.1-0.8-0.1
		c-0.3-0.2-0.4-0.4-0.6-0.6l-0.5-0.6l-1-1.3l-2-2.5l0,0l0.3-0.1l-0.9,3.1l-0.4,1.6L81,21.8c-0.1,0.3-0.1,0.5-0.3,0.8
		c-0.1,0.1-0.2,0.2-0.4,0.3l-0.4,0.1l-0.8,0.3l-1.5,0.6l-3,1.1l0,0l0-0.3c1,0.4,2,1,2.9,1.5c0.5,0.3,0.9,0.6,1.4,0.9l0.7,0.5
		l0.3,0.2c0.1,0.1,0.4,0.3,0.5,0.5c0.1,0.1,0.1,0.2,0.1,0.4c0,0.1,0,0.3,0,0.3l0,0.4c0,0.3,0,0.5,0,0.8c0,0.5,0,1.1,0,1.6
		c0,0.5,0,1.1-0.1,1.6l-0.1,0.8l0,0.4l0,0.2l0,0.1l0,0.1l0,0l0,0l0,0l0,0C80.2,35.1,80.6,35.3,80.1,35.1z M80.3,35.3
		c-0.5-0.2-0.1-0.1-0.2-0.1l0,0l0,0l0,0l0,0l0-0.1l0-0.1l0-0.2l-0.1-0.4l-0.1-0.8c-0.1-0.5-0.2-1.1-0.2-1.6
		c-0.1-0.5-0.1-1.1-0.2-1.6c0-0.3,0-0.5-0.1-0.8l0-0.4c0-0.1,0-0.1,0-0.1l0,0c0,0,0,0-0.1-0.1l-0.3-0.2l-0.7-0.5
		c-0.4-0.3-0.9-0.7-1.3-1c-0.8-0.7-1.7-1.4-2.4-2.2l-0.2-0.2l0.2-0.1l0,0l3-1.1l1.5-0.6l0.8-0.3l0.4-0.1c0.1,0,0.2-0.1,0.3-0.2
		c0.1-0.1,0.2-0.5,0.2-0.7l0.2-0.8l0.4-1.6l0.9-3.1l0.1-0.3l0.2,0.3l0,0l2,2.6l1,1.3l0.5,0.6c0.2,0.2,0.3,0.5,0.5,0.6
		c0.2,0.1,0.5,0.1,0.8,0.1l0.8,0l1.6,0l3.2,0l0,0l0,0c-0.6,0.9-1.2,1.8-1.7,2.8l-0.8,1.4L90,26.3l-0.2,0.3c-0.1,0.1-0.1,0.2-0.1,0.3
		c0,0.1,0.1,0.4,0.2,0.7l0.3,0.8l0.5,1.5c0.3,1,0.7,2.1,1,3.1l0.1,0.2l-0.2,0l0,0c-1.1-0.2-2.1-0.4-3.2-0.6l-1.6-0.4L86,31.9
		l-0.4-0.1c-0.1,0-0.1,0-0.2,0c-0.1,0,0,0-0.1,0.1l-0.3,0.2l-0.6,0.5l-1.3,1C82.1,34.1,81.2,34.7,80.3,35.3z"/>
</g>
<g>
	<path class="st2" d="M113.1,32.4l5.3-2c0.2-0.1,0.4-0.1,0.6,0.1l4.7,3.1l-0.2-5.7c0-0.2,0.1-0.4,0.2-0.5l4.4-3.6l-5.4-1.5
		c-0.2-0.1-0.4-0.2-0.4-0.4l-2-5.3l-3.1,4.8c-0.1,0.2-0.3,0.3-0.5,0.3l-5.6,0.3l3.5,4.5c0.1,0.2,0.2,0.4,0.1,0.6L113.1,32.4
		L113.1,32.4z"/>
	<path class="st3" d="M113.1,32.3c0.9-0.4,1.8-0.8,2.7-1.2c0.5-0.2,0.9-0.4,1.4-0.6l0.7-0.3l0.3-0.1c0.1-0.1,0.4-0.1,0.5-0.1
		c0.2,0,0.4,0.1,0.5,0.2l0.3,0.2l0.6,0.4l1.2,0.8c0.8,0.6,1.6,1.2,2.4,1.8l0,0l-0.2,0.1c-0.1-1-0.2-2-0.3-3l-0.1-1.5l0-0.8l0-0.4
		c0-0.1,0-0.3,0.1-0.5c0.1-0.2,0.2-0.3,0.3-0.4l0.3-0.2l0.6-0.5l1.2-0.9c0.8-0.6,1.6-1.2,2.4-1.8l0,0l0.1,0.2l-2.9-0.8l-1.4-0.4
		l-0.7-0.2c-0.2-0.1-0.5-0.1-0.7-0.3c-0.2-0.2-0.2-0.5-0.3-0.7l-0.3-0.7l-0.5-1.4l-1.1-2.8l0,0l0.3,0c-0.5,0.9-1,1.8-1.5,2.6
		c-0.2,0.4-0.5,0.9-0.8,1.3l-0.4,0.6l-0.2,0.3c0,0.1-0.2,0.3-0.3,0.4c-0.2,0.1-0.4,0.2-0.6,0.2l-0.4,0l-0.7,0l-1.5,0c-1,0-2,0-3-0.1
		l0,0l0.1-0.2c0.7,0.7,1.4,1.4,2.1,2.2l1,1.2l0.5,0.6l0.2,0.3c0.1,0.1,0.2,0.3,0.3,0.5c0,0.1,0,0.2,0,0.3c0,0.1,0,0.2-0.1,0.3
		l-0.1,0.4l-0.2,0.7c-0.1,0.5-0.3,1-0.4,1.4c-0.1,0.5-0.3,1-0.5,1.4l-0.3,0.7l-0.1,0.4l-0.1,0.2l0,0.1l0,0l0,0l0,0l0,0l0,0
		C113.2,32.3,113.4,32.6,113.1,32.3z M113.2,32.5c-0.4-0.3-0.1-0.1-0.2-0.2l0,0l0,0l0,0l0,0l0,0l0-0.1l0-0.2l0.1-0.4l0.1-0.7
		c0.1-0.5,0.2-1,0.3-1.5c0.1-0.5,0.2-1,0.3-1.5l0.2-0.7l0.1-0.4c0-0.1,0-0.1,0-0.1c0,0,0,0,0-0.1c0,0,0,0-0.1-0.1l-0.2-0.3l-0.5-0.6
		l-0.9-1.2c-0.6-0.8-1.1-1.7-1.6-2.5l-0.1-0.2l0.2,0l0,0c1-0.2,2-0.3,3-0.4l1.5-0.1l0.7,0l0.4,0c0.1,0,0.1,0,0.1,0
		c0,0,0.2-0.3,0.3-0.5l0.4-0.6c0.3-0.4,0.6-0.8,0.9-1.2c0.6-0.8,1.2-1.6,1.8-2.4l0.2-0.2l0.1,0.2l0,0l1,2.8l0.5,1.4l0.3,0.7
		c0.1,0.2,0.1,0.5,0.3,0.6c0.1,0.2,0.4,0.2,0.6,0.3l0.7,0.2l1.5,0.4l2.9,0.8l0.3,0.1l-0.2,0.2l0,0c-0.7,0.7-1.5,1.4-2.2,2l-1.1,1
		l-0.6,0.5l-0.3,0.2c-0.1,0.1-0.1,0.1-0.1,0.2c-0.1,0.1,0,0.4,0,0.6l0,0.8l0,1.5c0,1,0,2,0,3l0,0.2l-0.2-0.1l0,0
		c-0.9-0.4-1.8-1-2.6-1.5l-1.3-0.8l-0.6-0.4l-0.3-0.2c-0.1-0.1-0.1-0.1-0.2-0.1c-0.1,0-0.1,0-0.2,0l-0.3,0.1l-0.7,0.3
		c-0.5,0.2-0.9,0.3-1.4,0.5C115.1,31.9,114.1,32.3,113.2,32.5z"/>
</g>
<g>
	<path class="st2" d="M76.9,52.7l4.2-3.4c0.2-0.1,0.4-0.2,0.6-0.1l5.2,1.4l-1.9-5.1c-0.1-0.2,0-0.4,0.1-0.6l2.9-4.6l-5.4,0.2
		c-0.2,0-0.4-0.1-0.5-0.2l-3.4-4.2l-1.4,5.2c0,0.2-0.2,0.4-0.4,0.4l-5,1.9l4.5,3c0.2,0.1,0.3,0.3,0.3,0.5L76.9,52.7L76.9,52.7z"/>
	<path class="st3" d="M76.8,52.6c0.7-0.7,1.4-1.3,2.1-1.9c0.3-0.3,0.7-0.6,1.1-0.9l0.5-0.4l0.3-0.2c0.1-0.1,0.3-0.2,0.5-0.2
		c0.2,0,0.4,0,0.5,0l0.3,0.1l0.7,0.2c0.5,0.1,0.9,0.3,1.4,0.4c0.9,0.3,1.8,0.6,2.7,0.9l0,0l-0.2,0.2c-0.4-0.9-0.7-1.8-1-2.7
		c-0.3-0.9-0.5-1.8-0.8-2.7c0-0.1,0-0.3,0.1-0.4l0.2-0.3l0.4-0.6l0.7-1.2c0.5-0.8,1-1.6,1.5-2.4l0,0l0.1,0.2
		c-0.9,0.1-1.9,0.2-2.8,0.3l-1.4,0.1l-0.7,0l-0.4,0c-0.2,0-0.4,0-0.5-0.1c-0.2-0.1-0.3-0.3-0.4-0.3l-0.2-0.3L81,39.7
		c-0.3-0.4-0.6-0.7-0.9-1.1c-0.6-0.8-1.1-1.5-1.7-2.3l0,0l0.3-0.1c-0.1,1-0.2,1.9-0.4,2.8c-0.1,0.5-0.2,0.9-0.3,1.4l-0.2,0.7
		l-0.1,0.3c0,0.1-0.1,0.4-0.2,0.5c-0.1,0.2-0.3,0.3-0.5,0.4l-0.3,0.1L76,42.7c-0.4,0.2-0.9,0.3-1.4,0.5c-0.9,0.3-1.8,0.5-2.8,0.8
		l0,0l0-0.3l2.4,1.6l1.2,0.8l0.6,0.4c0.2,0.1,0.4,0.2,0.6,0.5c0.1,0.3,0.1,0.5,0.1,0.8l0,0.7l0.1,1.4l0.1,1.4l0,0.7l0,0.4l0,0.2
		l0,0.1l0,0l0,0l0,0l0,0l0,0C76.9,52.7,77.2,52.8,76.8,52.6z M77,52.8c-0.5-0.2-0.1-0.1-0.2-0.1l0,0l0,0l0,0l0,0l0,0l0-0.1l0-0.2
		l0-0.4l0-0.7l-0.1-1.4l-0.1-1.4l0-0.7c0-0.2,0-0.5-0.1-0.6c-0.1-0.2-0.3-0.3-0.5-0.4l-0.6-0.4l-1.2-0.8l-2.4-1.6l-0.2-0.1l0.2-0.1
		l0,0c0.8-0.5,1.7-0.9,2.6-1.3c0.4-0.2,0.9-0.4,1.3-0.6l0.7-0.3l0.3-0.1c0.1,0,0,0,0.1,0c0,0,0.1-0.3,0.1-0.5l0.2-0.7
		c0.1-0.5,0.3-0.9,0.4-1.4c0.3-0.9,0.6-1.8,1-2.7l0.1-0.2l0.2,0.2l0,0c0.7,0.7,1.3,1.4,1.9,2.1c0.3,0.4,0.6,0.7,0.9,1.1l0.5,0.6
		c0.2,0.2,0.3,0.4,0.4,0.4c0.1,0,0.1,0,0.2,0l0.4,0l0.7,0l1.4,0c1,0,1.9,0,2.9,0l0.3,0L88,40.5l0,0c-0.5,0.8-1,1.6-1.5,2.4l-1.6,2.4
		c-0.1,0.1,0,0.2,0,0.3l0.1,0.3c0.1,0.2,0.2,0.4,0.3,0.7c0.2,0.4,0.4,0.9,0.6,1.3c0.3,0.9,0.7,1.8,1,2.7l0.1,0.2l-0.2,0l0,0
		c-0.9-0.1-1.9-0.3-2.8-0.5c-0.5-0.1-0.9-0.2-1.4-0.3l-0.7-0.2l-0.3-0.1c-0.1,0-0.1,0-0.2,0c-0.1,0,0,0-0.1,0.1L81,49.9l-0.6,0.4
		c-0.4,0.3-0.7,0.6-1.1,0.9C78.5,51.8,77.8,52.3,77,52.8z"/>
</g>
<g>
	<path class="st2" d="M116,48.9l4.6-1.5c0.2-0.1,0.4,0,0.5,0.1l3.9,2.9l0.1-4.9c0-0.2,0.1-0.3,0.2-0.4l3.9-2.9l-4.6-1.6
		c-0.2-0.1-0.3-0.2-0.4-0.4l-1.5-4.6l-2.9,3.9c-0.1,0.1-0.3,0.2-0.5,0.2l-4.8,0l2.8,4c0.1,0.1,0.1,0.3,0.1,0.5L116,48.9L116,48.9z"
		/>
	<path class="st3" d="M116,48.7c0.8-0.4,1.6-0.7,2.4-1c0.4-0.2,0.8-0.3,1.2-0.4l0.6-0.2l0.3-0.1c0.1,0,0.3-0.1,0.5-0.1
		c0.2,0,0.4,0.1,0.5,0.2l0.3,0.2l0.5,0.4c0.3,0.3,0.7,0.5,1,0.8c0.7,0.5,1.3,1.1,1.9,1.7l0,0l-0.2,0.1l0-2.6l0-1.3l0-0.6
		c0-0.2,0-0.4,0.1-0.7c0.1-0.1,0.2-0.2,0.3-0.3l0.3-0.2l0.5-0.4l1-0.8l2.1-1.5l0,0l0,0.3c-0.8-0.2-1.7-0.4-2.5-0.6
		c-0.4-0.1-0.8-0.2-1.2-0.4l-0.6-0.2l-0.3-0.1c-0.1,0-0.3-0.2-0.4-0.3c-0.1-0.1-0.2-0.4-0.2-0.4l-0.1-0.3l-0.2-0.6
		c-0.1-0.4-0.2-0.8-0.3-1.2c-0.2-0.8-0.4-1.7-0.6-2.5l0,0l0.3,0c-0.4,0.8-0.8,1.5-1.3,2.2c-0.2,0.4-0.5,0.7-0.7,1.1l-0.4,0.5
		l-0.2,0.3c0,0.1-0.2,0.3-0.4,0.4c-0.2,0.1-0.4,0.2-0.6,0.2l-0.3,0l-0.6,0c-0.4,0-0.9,0-1.3-0.1c-0.9,0-1.7-0.1-2.6-0.3l0,0l0.1-0.2
		l1.4,2.1l0.7,1.1l0.4,0.5c0.1,0.2,0.3,0.3,0.3,0.6c0,0.3-0.1,0.5-0.1,0.7l-0.2,0.6l-0.4,1.2l-0.4,1.2l-0.2,0.6l-0.1,0.3l0,0.2
		l0,0.1l0,0l0,0l0,0l0,0l0,0C116.1,48.8,116.3,49.1,116,48.7z M116.1,49c-0.4-0.4-0.1-0.1-0.2-0.2l0,0l0,0l0,0l0,0l0,0l0-0.1
		l0.1-0.2l0.1-0.3l0.2-0.6l0.4-1.2l0.4-1.2l0.2-0.6c0.1-0.2,0.2-0.4,0.1-0.6c0-0.2-0.2-0.3-0.3-0.5l-0.4-0.5l-0.7-1.1l-1.5-2.1
		l-0.1-0.2l0.2,0l0,0c0.8-0.1,1.7-0.2,2.5-0.3c0.4,0,0.8,0,1.3-0.1l0.6,0l0.3,0c0,0,0,0,0,0l0.7-0.9c0.3-0.3,0.5-0.7,0.8-1
		c0.5-0.7,1.1-1.3,1.7-1.9l0.2-0.2l0.1,0.2l0,0c0.3,0.8,0.7,1.6,0.9,2.4c0.2,0.4,0.3,0.8,0.4,1.2l0.2,0.6c0.1,0.2,0.1,0.5,0.2,0.4
		l2.2,0.8c0.8,0.3,1.6,0.6,2.3,1l0.2,0.1l-0.2,0.1l0,0l-2.1,1.5l-1,0.8l-0.5,0.4c-0.2,0.1-0.4,0.2-0.4,0.4c-0.1,0.1,0,0.4,0,0.6
		l0,0.6l0,1.3l0,2.6l0,0.2l-0.2-0.1l0,0c-0.8-0.4-1.5-0.9-2.2-1.3c-0.4-0.2-0.7-0.5-1-0.7l-0.5-0.4l-0.3-0.2c-0.1-0.1-0.1,0-0.1-0.1
		c0,0,0,0-0.1,0l-0.3,0.1l-0.6,0.2c-0.4,0.1-0.8,0.2-1.2,0.3C117.7,48.6,116.9,48.8,116.1,49z"/>
</g>
</svg>
