<svg width="90" height="18" viewBox="0 0 90 18" fill="red" xmlns="http://www.w3.org/2000/svg">
<g clip-path="url(#clip0)">
<path d="M45.9688 11.6914L43.5573 10.2703L43.3851 10.5502C42.8468 11.4115 42.0932 11.8421 41.1674 11.8421C39.5741 11.8421 38.3899 10.6364 38.3899 9.06459C38.3899 7.47129 39.5956 6.28708 41.1674 6.28708C42.1147 6.28708 42.8037 6.69617 43.3851 7.57895L43.5573 7.85885L45.9688 6.4378L45.7535 6.13636C44.5908 4.45694 43.1052 3.66029 41.1458 3.66029C37.464 3.66029 35.4832 6.45933 35.4832 9.08612C35.4832 11.7129 37.464 14.512 41.1458 14.512C43.019 14.512 44.7846 13.5646 45.7535 12.0144L45.9688 11.6914Z" fill="white"/>
<path d="M45.8397 14.4689H49.1555L50.1459 12.0144H55.1196L56.1101 14.4689H59.4474L53.5048 0.107656H50.5335L51.3302 2.02392L45.8397 14.4689ZM52.6651 5.77033L54 9.15072H51.2871L52.6651 5.77033ZM60.8254 14.4904H63.7321V8.0311H65.6268V5.31818H63.7321V4.04785C63.7321 3.48804 64.0981 2.9067 64.7871 2.9067C65.1531 2.9067 65.39 2.97129 65.6053 3.05742L65.9283 3.1866L67.134 0.538278L66.811 0.430622C66.2727 0.215311 65.5192 0.129187 64.9809 0.129187C63.6675 0.129187 62.5694 0.559809 61.8373 1.37799C61.1914 2.08852 60.8254 3.07895 60.8254 4.17703V5.33971H59.5335V8.05263H60.8254V14.4904ZM21.7679 0.0215311V14.4474L24.933 14.4689V6.20096L28.012 8.48325L31.0694 6.20096V14.4689H34.2345V0.0215311L28.012 4.71531L21.7679 0.0215311ZM72.1938 3.66029C68.5335 3.66029 66.5527 6.4378 66.5527 9.06459C66.5527 11.6914 68.5335 14.4689 72.1938 14.4689C73.8732 14.4474 75.445 13.6938 76.6723 12.2943L74.3038 11.0024C73.701 11.6268 72.9474 11.9498 72.1292 11.9498C70.9235 11.9498 69.8684 11.1531 69.5885 10.0981H77.512V9.38756C77.5335 5.44737 74.4115 3.68182 72.1938 3.66029ZM69.6531 7.7512C70.0407 6.76077 70.8589 6.20096 71.9139 6.20096C72.9904 6.20096 73.8302 6.76077 74.2608 7.77273L69.6531 7.7512ZM84.1005 3.68182C80.4402 3.68182 78.4594 6.45933 78.4594 9.08612C78.4594 11.7129 80.4402 14.4904 84.1005 14.4904C85.7799 14.4689 87.3517 13.7153 88.579 12.3158L86.2105 11.0239C85.6077 11.6483 84.8541 11.9713 84.0359 11.9713C82.8302 11.9713 81.7751 11.1746 81.4952 10.1196H89.4187V9.40909C89.4402 5.4689 86.3182 3.68182 84.1005 3.68182ZM81.5598 7.7512C81.9474 6.76077 82.7656 6.17943 83.8206 6.20096C84.8971 6.20096 85.7369 6.76077 86.1675 7.77273L81.5598 7.7512ZM7.81579 3.61722L0 0V14.3828L7.81579 18L15.6316 14.3828V0L7.81579 3.61722ZM12.445 12.3373L7.83732 14.4689L3.22967 12.3373V5.01675L7.83732 7.14833L12.445 5.01675V12.3373Z" fill="white"/>
</g>
<defs>
<clipPath id="clip0">
<rect width="89.4187" height="18" fill="white"/>
</clipPath>
</defs>
</svg>
