<?xml version="1.0" encoding="UTF-8"?>
<svg width="60px" height="60px" viewBox="0 0 60 60" version="1.1" xmlns="http://www.w3.org/2000/svg" xmlns:xlink="http://www.w3.org/1999/xlink">
    <title>Wholesale</title>
    <g id="Wholesale" stroke="none" stroke-width="1" fill="none" fill-rule="evenodd">
        <g id="Wholesale_1" fill-rule="nonzero">
            <path d="M3.75,1.0658141e-14 L55.2663934,1.0658141e-14 C57.3374613,9.83360284e-15 59.0163934,1.67893219 59.0163934,3.75 L59.0163934,55.2663934 C59.0163934,57.3374613 57.3374613,59.0163934 55.2663934,59.0163934 L3.75,59.0163934 C1.67893219,59.0163934 2.53632657e-16,57.3374613 0,55.2663934 L0,3.75 C-6.97721867e-16,1.67893219 1.67893219,1.103859e-14 3.75,1.0658141e-14 Z" id="Rectangle" fill="#FFFFFF" opacity="0.15" transform="translate(29.508197, 29.508197) rotate(90.000000) translate(-29.508197, -29.508197) "></path>
            <path d="M13.032459,8.85245902 L45.9839344,8.85245902 C48.2924847,8.85245902 50.1639344,10.7239088 50.1639344,13.032459 L50.1639344,45.9839344 C50.1639344,48.2924847 48.2924847,50.1639344 45.9839344,50.1639344 L13.032459,50.1639344 C10.7239088,50.1639344 8.85245902,48.2924847 8.85245902,45.9839344 L8.85245902,13.032459 C8.85245902,10.7239088 10.7239088,8.85245902 13.032459,8.85245902 Z" id="Rectangle" fill="#BFC6F9" opacity="0.5" transform="translate(29.508197, 29.508197) rotate(90.000000) translate(-29.508197, -29.508197) "></path>
            <rect id="Rectangle" fill="#5161CF" x="12.4327869" y="23.0557377" width="14.6163934" height="14.6163934"></rect>
            <path d="M27.0885246,37.7114754 L12.4327869,37.947541 C12.360664,37.9502141 12.2905594,37.9234186 12.2386066,37.8733212 C12.1866537,37.8232238 12.1573275,37.7541396 12.157377,37.6819672 L12.157377,37.6819672 L11.9901639,23.0655738 C11.9901639,22.8249101 12.1823466,22.6282989 12.4229508,22.6229508 L12.4229508,22.6229508 L27.0393443,22.5147541 L27.0393443,22.5147541 C27.3343218,22.5147541 27.5749646,22.7509728 27.5803279,23.0459016 L27.5803279,23.0459016 C27.4327869,28.0721311 27.2065574,32.9606557 27.0885246,37.7114754 Z M27.0098361,37.6327869 C26.8819672,32.6459016 26.6557377,27.7967213 26.4983607,23.0557377 L27.0491803,23.6163934 L12.4327869,23.4983607 L12.8754098,23.0557377 L12.7081967,37.6721311 L12.4327869,37.3770492 L27.0098361,37.6327869 Z" id="Shape" fill="#2D2FA7"></path>
            <rect id="Rectangle" fill="#BFC6F9" x="8.41967213" y="37.504918" width="42.1672131" height="21.6098361"></rect>
            <path d="M50.6262295,59.1540984 L29.6655738,59.4885246 L19.0622951,59.6065574 L8.41967213,59.6065574 C8.2823293,59.6173604 8.14643589,59.5723016 8.04275562,59.4815814 C7.93907536,59.3908612 7.87637634,59.2621516 7.86885246,59.1245902 L7.86885246,59.1245902 L7.86885246,48.304918 C7.86885246,44.704918 7.93770492,41.104918 7.96721311,37.4852459 L7.96721311,37.4852459 C7.97239868,37.2701381 8.14554792,37.0969888 8.36065574,37.0918033 L50.5967213,37.3770492 C50.6945029,37.3770492 50.7737705,37.4563168 50.7737705,37.5540984 L50.7737705,37.5540984 L50.6262295,59.1540984 Z M50.557377,59.0852459 L50.4098361,37.504918 L50.5967213,37.6918033 L8.41967213,37.8983607 L8.81311475,37.504918 C8.81311475,41.1147541 8.92131148,44.7147541 8.92131148,48.3245902 L8.92131148,59.1442623 L8.4,58.6229508 L18.8557377,58.6229508 L29.3311475,58.7311475 L50.557377,59.0852459 Z" id="Shape" fill="#2D2FA7"></path>
            <rect id="Rectangle" fill="#EFF1FD" x="27.5901639" y="19.8393443" width="17.8327869" height="17.8327869"></rect>
            <path d="M45.452459,37.7114754 L27.5901639,38.1639344 C27.4632642,38.1692518 27.3395742,38.1232162 27.2470304,38.036225 C27.1544867,37.9492339 27.1008954,37.8286251 27.0983607,37.7016393 L27.0983607,37.7016393 L27.0983607,37.7016393 L27.1967213,19.8688525 L27.1967213,19.8688525 C27.1967213,19.6515601 27.3728716,19.4754098 27.5901639,19.4754098 L27.5901639,19.4754098 L45.4229508,19.6229508 L45.4229508,19.6229508 C45.5587585,19.6229508 45.6688525,19.7330447 45.6688525,19.8688525 L45.6688525,19.8688525 L45.452459,37.7114754 Z M45.3836066,37.642623 L45.1770492,19.8393443 L45.4229508,20.0852459 L27.5901639,20.2327869 L27.9836066,19.8393443 L28.0819672,37.6721311 L27.5901639,37.1803279 C33.442623,37.3770492 39.3442623,37.5245902 45.3836066,37.642623 Z" id="Shape" fill="#2D2FA7"></path>
            <rect id="Rectangle" fill="#BFC6F9" x="34.2196721" y="19.052459" width="4.86885246" height="7.12131148"></rect>
            <path d="M34.2,26.1934426 C34.0721311,23.9409836 33.9540984,21.4918033 33.9442623,19.052459 C33.9415916,18.9777269 33.9694245,18.9051215 34.0213662,18.8513247 C34.0733079,18.797528 34.1448923,18.7672131 34.2196721,18.7672131 C35.852459,18.7672131 37.4754098,18.7672131 39.1377049,18.8262295 L39.1377049,18.8262295 C39.2549074,18.8364589 39.3447079,18.9348118 39.3442639,19.052459 L39.2459016,26.1737705 C39.2459016,26.2389582 39.1930566,26.2918033 39.1278689,26.2918033 L39.1278689,26.2918033 L34.2,26.1934426 Z M34.2,26.1934426 L39.0590164,26.095082 L38.9409836,26.2131148 L38.8327869,19.0918033 L39.0590164,19.3081967 C37.4360656,19.3770492 35.8131148,19.3868852 34.1409836,19.3672131 L34.4262295,19.0918033 C34.495082,21.3540984 34.4262295,23.6557377 34.2393443,26.1540984 L34.2,26.1934426 Z" id="Shape" fill="#2D2FA7"></path>
            <rect id="Rectangle" fill="#FFFFFF" x="35.6852459" y="48.3147541" width="11.3508197" height="7.12131148"></rect>
            <path d="M35.6557377,55.4655738 C35.5278689,53.2131148 35.3508197,50.7836066 35.3114754,48.3147541 C35.3114754,48.1175381 35.4684298,47.9561498 35.6655738,47.9508197 L35.6655738,47.9508197 C37.5540984,47.8819672 39.442623,47.8819672 41.3409836,47.8721311 C43.2393443,47.8622951 45.1180328,47.8721311 47.0163934,47.9803279 L47.0163934,47.9803279 C47.1933678,47.9907559 47.3314545,48.137473 47.3311481,48.3147541 L47.2327869,55.4360656 L47.2327869,55.4360656 C47.2327869,55.4986741 47.2079158,55.5587183 47.1636449,55.6029891 C47.119374,55.64726 47.0593298,55.6721311 46.9967213,55.6721311 L46.9967213,55.6721311 L35.6557377,55.4655738 Z M35.7147541,55.4065574 L47.0360656,55.2 L46.7901639,55.4360656 L46.7016393,48.3147541 L47.0360656,48.6491803 C45.1377049,48.7377049 43.2491803,48.757377 41.3606557,48.757377 C39.4721311,48.757377 37.5737705,48.757377 35.6852459,48.6885246 L36.0491803,48.3147541 C36.0098361,50.5967213 35.842623,52.9081967 35.7147541,55.4065574 Z" id="Shape" fill="#2D2FA7"></path>
            <polygon id="Rectangle" fill="#5161CF" transform="translate(41.360656, 51.875410) rotate(90.000000) translate(-41.360656, -51.875410) " points="37.8 46.2 44.9213115 46.2 44.9213115 57.5508197 37.8 57.5508197"></polygon>
            <rect id="Rectangle" fill="#BFC6F9" x="18.5508197" y="22.6131148" width="3.36393443" height="4.29836066"></rect>
            <path d="M18.5311475,26.9311475 L18.4032787,22.6229508 C18.4032787,22.5414662 18.469335,22.4754098 18.5508197,22.4754098 L18.5508197,22.4754098 L21.9245902,22.3967212 C22.0403628,22.3966017 22.1357213,22.4876257 22.1409836,22.6032787 L22.1409836,22.6032787 C22.2393443,24.0295082 22.2196721,25.4655738 22.1409836,26.9016393 L22.1409836,26.9016393 C22.1356957,27.039024 22.0227322,27.1476427 21.8852459,27.1475411 C20.7344262,27.1377049 19.5639344,27.0295082 18.5311475,26.9311475 Z M18.5311475,26.9311475 C19.7508197,26.8327869 20.8229508,26.7245902 21.8852459,26.695082 L21.6295082,26.9508197 C21.5557104,25.5189831 21.5557104,24.0842956 21.6295082,22.652459 L21.8557377,22.8688525 L18.4819672,22.8 L18.6885246,22.6229508 L18.5311475,26.9311475 Z" id="Shape" fill="#2D2FA7"></path>
            <polygon id="Path" fill="#DFE2FC" points="12.9147541 47.547541 14.4393443 47.547541 14.4393443 54.8065574 16.9672131 54.8065574 16.9672131 47.547541 18.6393443 47.547541 15.6786885 42"></polygon>
            <path d="M12.9540984,47.5180328 C13.5245902,47.4688525 13.9967213,47.3704918 14.4393443,47.3213115 C14.5465259,47.3151235 14.640579,47.3920761 14.6557377,47.4983607 L14.6557377,47.4983607 L14.6557377,47.547541 C14.7639344,48.757377 14.8229508,49.9672131 14.852459,51.1770492 C14.8819672,52.3868852 14.9016393,53.5868852 14.852459,54.7967213 L14.4786885,54.4327869 L17.0065574,54.6 L16.8098361,54.7967213 C16.8688525,53.5868852 16.8688525,52.3770492 16.8098361,51.1770492 C16.7508197,49.9770492 16.652459,48.757377 16.6032787,47.547541 C16.5979254,47.4457681 16.6332903,47.3460481 16.7015688,47.2703882 C16.7698473,47.1947282 16.8654265,47.1493479 16.9672131,47.1442623 L16.9672131,47.1442623 C17.5180328,47.1442623 18.0786885,47.1442623 18.6393443,47.0852459 L18.2360656,47.7639344 C17.7245902,46.8491803 17.1934426,45.9442623 16.6918033,45.0196721 C16.1901639,44.095082 15.7081967,43.1704918 15.2557377,42.2262295 L16.1016393,42.2262295 C15.6196721,43.0721311 15.1180328,43.9081967 14.6163934,44.7639344 C14.1147541,45.6196721 13.5245902,46.5344262 12.9540984,47.5180328 Z M12.8655738,47.5180328 L13.9672131,44.7344262 C14.3409836,43.7508197 14.8032787,42.7672131 15.2459016,41.7836066 C15.2954447,41.671414 15.3875389,41.5835061 15.5019132,41.5392322 C15.6162876,41.4949582 15.7435676,41.4979471 15.8557377,41.547541 C15.9461732,41.5848083 16.0220968,41.6503786 16.0721311,41.7344262 L16.0721311,41.7344262 C16.6032787,42.6393443 17.1147541,43.5540984 17.5967213,44.4786885 C18.0786885,45.4032787 18.5803279,46.347541 19.0229508,47.2819672 L19.0229508,47.2819672 C19.1317416,47.5050932 19.0448977,47.7743093 18.8262295,47.8918033 C18.7552621,47.910127 18.6808035,47.910127 18.6098361,47.8918033 C18.0491803,47.8918033 17.4885246,47.8918033 16.9377049,47.8327869 L17.3311475,47.4393443 C17.3311475,48.6491803 17.1836066,49.8590164 17.1245902,51.0688525 C17.060677,52.2745634 17.060677,53.4828136 17.1245902,54.6885246 C17.1272686,54.738107 17.110105,54.7867171 17.0768877,54.8236252 C17.0436704,54.8605333 16.9971307,54.8827048 16.947541,54.8852459 L16.947541,54.8852459 L14.4196721,55.052459 C14.2310528,55.0640882 14.066541,54.9255519 14.0459016,54.7377049 L14.0459016,54.6786885 C13.957377,53.4688525 13.9770492,52.2590164 13.9967213,51.0590164 C14.0163934,49.8590164 14.0852459,48.6393443 14.2032787,47.4295082 L14.4196721,47.6459016 C13.8688525,47.7147541 13.3180328,47.6262295 12.8655738,47.5672131 L12.8655738,47.5180328 Z" id="Shape" fill="#2D2FA7"></path>
        </g>
    </g>
</svg>